<svg xmlns="http://www.w3.org/2000/svg" viewBox="0 0 960 480" role="img" aria-label="Minimal world map">
  <defs>
    <linearGradient id="bg" x1="0" y1="0" x2="1" y2="1">
      <stop offset="0" stop-color="#eef2ff" />
      <stop offset="1" stop-color="#e0f2fe" />
    </linearGradient>
    <linearGradient id="land" x1="0" y1="0" x2="1" y2="1">
      <stop offset="0" stop-color="#818cf8" />
      <stop offset="1" stop-color="#0ea5e9" />
    </linearGradient>
    <filter id="blur" x="-10%" y="-10%" width="120%" height="120%">
      <feGaussianBlur stdDeviation="8" />
    </filter>
  </defs>
  <rect width="960" height="480" fill="url(#bg)" />
  <g fill="url(#land)" opacity="0.55">
    <path d="M70 210C120 140 230 120 320 150C360 166 398 176 434 174C462 173 494 159 506 124C514 103 530 94 550 101C600 118 638 120 672 109C744 84 808 110 846 150C862 168 884 210 864 238C844 266 798 282 760 280C726 278 712 304 680 312C648 320 610 310 582 294C550 276 516 266 486 268C420 272 366 306 320 328C288 344 244 344 210 324C172 302 120 298 92 268C54 226 40 180 70 210Z" />
    <path d="M180 360C204 332 242 320 274 332C314 346 332 384 310 410C292 432 254 438 226 422C206 410 184 386 180 360Z" />
    <path d="M640 350C664 324 714 316 752 328C794 340 822 374 812 402C802 430 756 444 718 434C684 424 638 386 640 350Z" />
  </g>
  <g opacity="0.2" fill="#312e81">
    <circle cx="260" cy="160" r="6" />
    <circle cx="520" cy="120" r="6" />
    <circle cx="720" cy="200" r="6" />
    <circle cx="640" cy="320" r="6" />
    <circle cx="340" cy="280" r="6" />
  </g>
  <g stroke="#1d4ed8" stroke-width="0.6" opacity="0.15">
    <circle cx="260" cy="160" r="40" fill="none" />
    <circle cx="520" cy="120" r="58" fill="none" />
    <circle cx="720" cy="200" r="52" fill="none" />
    <circle cx="340" cy="280" r="64" fill="none" />
  </g>
  <ellipse cx="180" cy="420" rx="140" ry="20" fill="#93c5fd" opacity="0.1" filter="url(#blur)" />
  <ellipse cx="760" cy="430" rx="120" ry="18" fill="#93c5fd" opacity="0.1" filter="url(#blur)" />
</svg>
