<svg xmlns="http://www.w3.org/2000/svg" viewBox="0 0 1600 600" role="img" aria-label="Abstract blue travel collage">
  <defs>
    <linearGradient id="bg" x1="0" y1="0" x2="1" y2="1">
      <stop offset="0" stop-color="#eef2ff" />
      <stop offset="1" stop-color="#dbeafe" />
    </linearGradient>
    <linearGradient id="wave" x1="0" y1="0" x2="1" y2="0">
      <stop offset="0" stop-color="#2563eb" />
      <stop offset="1" stop-color="#0ea5e9" />
    </linearGradient>
  </defs>
  <rect width="1600" height="600" fill="url(#bg)" />
  <circle cx="320" cy="160" r="140" fill="#c7d2fe" opacity="0.7" />
  <circle cx="620" cy="90" r="90" fill="#c4b5fd" opacity="0.6" />
  <circle cx="1260" cy="160" r="160" fill="#bae6fd" opacity="0.6" />
  <path d="M0 360 Q320 320 520 360 T960 360 T1600 360 V600 H0 Z" fill="url(#wave)" opacity="0.35" />
  <path d="M0 420 Q280 480 520 440 T1020 420 T1600 460 V600 H0 Z" fill="#1d4ed8" opacity="0.25" />
  <circle cx="980" cy="320" r="110" fill="#fef3c7" opacity="0.45" />
  <circle cx="1320" cy="360" r="70" fill="#fcd34d" opacity="0.35" />
  <g stroke="#1d4ed8" stroke-width="4" opacity="0.2">
    <path d="M360 80 L420 140 L360 200 L300 140 Z" fill="none" />
    <path d="M1180 260 L1260 320 L1180 380 L1100 320 Z" fill="none" />
    <circle cx="780" cy="260" r="60" fill="none" />
  </g>
</svg>
