<svg xmlns="http://www.w3.org/2000/svg" viewBox="0 0 1600 600" role="img" aria-label="Abstract sunset travel collage">
  <defs>
    <linearGradient id="sunset-bg" x1="0" y1="0" x2="1" y2="1">
      <stop offset="0" stop-color="#fff7ed" />
      <stop offset="1" stop-color="#fee2e2" />
    </linearGradient>
    <linearGradient id="sunset-wave" x1="0" y1="0" x2="1" y2="0">
      <stop offset="0" stop-color="#fb923c" />
      <stop offset="1" stop-color="#f43f5e" />
    </linearGradient>
  </defs>
  <rect width="1600" height="600" fill="url(#sunset-bg)" />
  <circle cx="420" cy="200" r="160" fill="#fed7aa" opacity="0.7" />
  <circle cx="1080" cy="140" r="120" fill="#fecdd3" opacity="0.7" />
  <circle cx="760" cy="100" r="80" fill="#fcd34d" opacity="0.8" />
  <path d="M0 360 Q320 320 520 360 T960 360 T1600 360 V600 H0 Z" fill="url(#sunset-wave)" opacity="0.45" />
  <path d="M0 450 Q320 410 600 470 T1220 490 T1600 460 V600 H0 Z" fill="#ea580c" opacity="0.3" />
  <circle cx="1220" cy="340" r="110" fill="#f472b6" opacity="0.3" />
  <circle cx="280" cy="360" r="120" fill="#fb7185" opacity="0.25" />
  <g stroke="#9a3412" stroke-width="4" opacity="0.2">
    <path d="M320 120 L380 180 L320 240 L260 180 Z" fill="none" />
    <path d="M1180 80 L1270 150 L1180 220 L1090 150 Z" fill="none" />
    <circle cx="860" cy="260" r="70" fill="none" />
  </g>
</svg>
